<svg xmlns="http://www.w3.org/2000/svg" width="512" height="512" version="1.1"><path fill="#000" d="M0 0 C1.62730644 -0.00435444 3.25461083 -0.00954002 4.88191223 -0.01548767 C9.27663708 -0.02881013 13.67127558 -0.02946391 18.06601667 -0.02692437 C21.74616543 -0.02585006 25.42629704 -0.03074974 29.10644209 -0.03552979 C37.79444465 -0.04660162 46.48240397 -0.04707549 55.17041016 -0.04101562 C64.1079393 -0.03497721 73.04531096 -0.04728886 81.98281324 -0.06858569 C89.67996415 -0.0862468 97.37706515 -0.09219596 105.07423556 -0.08894795 C109.66095749 -0.08714214 114.24756706 -0.08970074 118.83427048 -0.10366249 C123.15016224 -0.11630989 127.46580987 -0.11423194 131.78169823 -0.1012516 C133.35697325 -0.09890125 134.93226582 -0.1015646 136.50752068 -0.10987473 C154.03163491 -0.19558796 168.62288508 3.0885136 181.52832031 15.43432617 C182.17479334 16.04559797 182.82126637 16.65686977 183.48732948 17.28666496 C191.4670785 24.86907596 199.26829556 32.63386949 207.06103516 40.4074707 C208.24816542 41.5903599 208.24816542 41.5903599 209.45927811 42.79714584 C213.63501944 46.9580506 217.80799976 51.12169972 221.97851562 55.2878418 C226.25143566 59.55525102 230.53358558 63.81327307 234.81789207 68.06924629 C238.14833003 71.38097135 241.47195439 74.69947237 244.7938118 78.01980209 C246.36918378 79.5921746 247.94702354 81.16207911 249.52750778 82.7293129 C271.9970386 105.02359566 271.9970386 105.02359566 275.72509766 116.3996582 C276.09634766 117.47473633 276.46759766 118.54981445 276.85009766 119.6574707 C278.70872128 127.34088802 278.87316957 135.17198059 278.85881042 143.04548645 C278.86107598 143.97590828 278.86334154 144.90633011 278.86567575 145.86494654 C278.87195996 148.95441091 278.87119 152.04383077 278.87036133 155.13330078 C278.87335628 157.35996049 278.87675958 159.58661968 278.88053894 161.8132782 C278.88934832 167.84229503 278.89171575 173.87129765 278.89235473 179.90032029 C278.8930669 183.67179082 278.89520437 187.44325777 278.89785194 191.2147274 C278.90661847 203.70675064 278.91127292 216.19876585 278.91052147 228.69079152 C278.91046154 229.69873986 278.91046154 229.69873986 278.91040039 230.72705078 C278.91035951 231.3998459 278.91031863 232.07264102 278.91027651 232.76582386 C278.90987019 243.66545075 278.91943897 254.56504307 278.93353876 265.46465997 C278.94793483 276.68267415 278.95462444 287.90067203 278.95394498 299.11869735 C278.95369062 305.40619722 278.95650801 311.69365794 278.96712303 317.98114967 C278.97683814 323.89667865 278.97685983 329.81213129 278.9696064 335.72766304 C278.96856484 337.89110171 278.97089781 340.05454521 278.97696686 342.21797562 C279.02934726 362.19323429 278.46346 379.45185468 264.72509766 395.2746582 C252.42205595 407.09522769 239.89092753 410.63774149 223.22509766 410.3996582 C222.02111328 410.39063477 220.81712891 410.38161133 219.57666016 410.37231445 C216.62592976 410.34889596 213.67562076 410.31609813 210.72509766 410.2746582 C210.74604492 410.96390381 210.76699219 411.65314941 210.78857422 412.36328125 C211.46517805 437.99928656 211.46517805 437.99928656 206.72509766 448.2746582 C206.37447266 449.07258789 206.02384766 449.87051758 205.66259766 450.69262695 C199.62541106 462.87181241 189.15411077 471.74081365 176.34119511 476.08243752 C164.87854864 479.19150277 153.27731031 478.69584601 141.49047852 478.6628418 C139.04500596 478.6669121 136.59953525 478.67225655 134.15406799 478.67877197 C128.22749497 478.69098466 122.30102681 478.68926205 116.37445682 478.68053405 C111.55411307 478.67373177 106.73380123 478.67285171 101.91345406 478.6761055 C101.22483979 478.6765652 100.53622552 478.6770249 99.82674416 478.67749853 C98.42742287 478.67845779 97.02810159 478.67943044 95.62878031 478.6804163 C82.53857555 478.68895025 69.44843404 478.67916716 56.35823966 478.6630152 C45.14805588 478.64961083 33.93796531 478.65194495 22.7277832 478.66577148 C9.67973456 478.68185751 -3.3682588 478.6881296 -16.41631597 478.67893469 C-17.80990214 478.67797914 -19.20348832 478.67703602 -20.59707451 478.6761055 C-21.28257869 478.67564267 -21.96808287 478.67517985 -22.67435991 478.67470299 C-27.48442332 478.67212238 -32.29445141 478.67646391 -37.10450935 478.68354416 C-43.58807718 478.69287889 -50.07151093 478.68615078 -56.55506325 478.66886139 C-58.92855285 478.6649087 -61.30205732 478.66600961 -63.67554092 478.67264938 C-83.19242394 478.72219684 -99.18022726 477.70795233 -114.02099609 463.5871582 C-127.3191771 449.94327059 -129.59956343 433.42593467 -129.52886963 414.99206543 C-129.53198961 413.72014548 -129.53510959 412.44822553 -129.53832412 411.13776255 C-129.54659215 407.64630579 -129.54258372 404.15495983 -129.53635168 400.66350293 C-129.53179508 396.88293576 -129.53882674 393.10238662 -129.54431152 389.32182312 C-129.55317316 381.93107645 -129.55129797 374.54037055 -129.54548624 367.14962232 C-129.54095699 361.13936173 -129.5403623 355.12911252 -129.54253387 349.11885071 C-129.54284034 348.26122813 -129.54314681 347.40360555 -129.54346256 346.51999441 C-129.54410205 344.77738185 -129.54475048 343.0347693 -129.54540774 341.29215676 C-129.55110158 324.97766389 -129.54456803 308.66319356 -129.53380701 292.3487044 C-129.52487236 278.3707233 -129.52642467 264.39277542 -129.53564453 250.41479492 C-129.54636392 234.15597217 -129.55055234 217.89716913 -129.54442 201.63834333 C-129.54378295 199.90238413 -129.54315421 198.16642491 -129.54253387 196.4304657 C-129.54207105 195.14950441 -129.54207105 195.14950441 -129.54159887 193.84266511 C-129.53987693 187.84434941 -129.5427762 181.84604629 -129.54749298 175.84773254 C-129.55312038 168.53103894 -129.55154644 161.21438821 -129.54093149 153.89769948 C-129.53569971 150.16948408 -129.53357516 146.44133999 -129.5402298 142.71312523 C-129.54735266 138.66110591 -129.5388091 134.60926438 -129.52886963 130.55725098 C-129.53333107 129.39390055 -129.53779252 128.23055013 -129.54238915 127.03194666 C-129.46238607 110.14004945 -126.54459811 96.25423885 -115.27490234 83.2746582 C-102.97186064 71.45408872 -90.44073222 67.91157492 -73.77490234 68.1496582 C-71.96892578 68.16319336 -71.96892578 68.16319336 -70.12646484 68.17700195 C-67.17573444 68.20042045 -64.22542545 68.23321827 -61.27490234 68.2746582 C-61.29584961 67.5854126 -61.31679687 66.89616699 -61.33837891 66.18603516 C-62.02185257 40.28973717 -62.02185257 40.28973717 -57.27490234 30.2746582 C-56.78892578 29.24469727 -56.30294922 28.21473633 -55.80224609 27.15356445 C-49.26961633 14.78326555 -39.19504929 7.21551948 -26.27490234 2.2746582 C-17.64900167 -0.19487306 -8.88779378 -0.01579418 0 0 Z M-25.29833984 36.02075195 C-25.74435547 36.57891602 -26.19037109 37.13708008 -26.64990234 37.7121582 C-27.11138672 38.26774414 -27.57287109 38.82333008 -28.04833984 39.39575195 C-30.69822194 43.45496624 -31.52513002 47.03750193 -31.53217125 51.84949207 C-31.53862014 52.96571691 -31.54506903 54.08194175 -31.55171335 55.23199159 C-31.54861614 56.45318293 -31.54551894 57.67437427 -31.54232788 58.93257141 C-31.54685899 60.23385221 -31.55139011 61.53513301 -31.55605853 62.87584656 C-31.56829456 66.48623247 -31.56802736 70.09652575 -31.56566978 73.70692766 C-31.56526176 77.6013859 -31.5762993 81.49581439 -31.58578491 85.39025879 C-31.60239924 93.0197137 -31.60789466 100.64913771 -31.60900967 108.27860919 C-31.60995995 114.48027608 -31.61406924 120.68193276 -31.62041092 126.88359642 C-31.63802459 144.46620711 -31.64724961 162.04879338 -31.64574997 179.63141296 C-31.64567006 180.57933575 -31.64559015 181.52725853 -31.64550781 182.50390625 C-31.64542605 183.45298637 -31.64534429 184.40206649 -31.64526005 185.37990662 C-31.64444714 200.761326 -31.66358578 216.14264747 -31.69178455 231.52403853 C-31.72050993 247.31729575 -31.73432503 263.11050521 -31.73259699 278.90378922 C-31.73193297 287.77061643 -31.73743078 296.63734099 -31.75895309 305.50414467 C-31.77716036 313.05360088 -31.78151601 320.60290791 -31.76793425 328.15237657 C-31.76140222 332.0035386 -31.76129558 335.8544144 -31.77864075 339.70554924 C-31.79725977 343.88251435 -31.78482317 348.05881617 -31.76937866 352.23579407 C-31.77966579 353.45029324 -31.78995291 354.66479242 -31.80055177 355.9160946 C-31.7370378 363.67820888 -30.88395063 369.42004581 -25.38037109 375.2980957 C-24.74744141 375.74411133 -24.11451172 376.19012695 -23.46240234 376.6496582 C-22.83720703 377.11114258 -22.21201172 377.57262695 -21.56787109 378.0480957 C-15.30926989 381.39596756 -9.25345252 381.56559156 -2.31315613 381.54208374 C-0.83243865 381.54888041 -0.83243865 381.54888041 0.67819232 381.55581439 C3.97748539 381.5684487 7.27661318 381.56683862 10.57592773 381.56518555 C12.94494336 381.57117137 15.31395703 381.57797705 17.68296814 381.58554077 C24.11278251 381.60320195 30.54254364 381.6078962 36.97237992 381.60917234 C40.99089059 381.61016163 45.00939196 381.61473694 49.02789879 381.62016678 C62.32757382 381.63777042 75.62721664 381.64700698 88.9269034 381.64550583 C89.64317128 381.64542592 90.35943915 381.64534601 91.09741211 381.64526367 C91.81455927 381.64518191 92.53170643 381.64510015 93.27058532 381.64501591 C104.89025494 381.64420318 116.50979488 381.66333976 128.12942699 381.69154041 C140.0739372 381.7202997 152.01838421 381.73407904 163.9629299 381.73235285 C170.66346185 381.73169002 177.36383744 381.7375269 184.06434059 381.75870895 C190.36729435 381.77809052 196.66996124 381.77821601 202.97292519 381.76367569 C205.28275471 381.76158646 207.5926022 381.76629525 209.90240097 381.77839661 C213.0627362 381.79387825 216.22208585 381.78452093 219.38240051 381.76913452 C220.74395987 381.78456521 220.74395987 381.78456521 222.13302547 381.80030763 C229.49784895 381.72141107 236.27148853 379.95895376 242.16259766 375.38012695 C242.93603516 374.43073242 242.93603516 374.43073242 243.72509766 373.4621582 C244.26134766 372.83696289 244.79759766 372.21176758 245.35009766 371.56762695 C248.92128854 365.61226034 249.01094436 359.52246328 248.96560669 352.77711487 C248.96731554 351.84008396 248.96902439 350.90305304 248.97078502 349.93762726 C248.97407038 346.80843719 248.96309187 343.67946317 248.95214844 340.55029297 C248.95158412 338.30298365 248.95190129 336.05567397 248.95303345 333.80836487 C248.95360715 327.71390008 248.9418499 321.61951406 248.92788553 315.52506757 C248.91538116 309.1535922 248.9142079 302.78211502 248.91183472 296.41062927 C248.90632524 285.71856158 248.89383367 275.02652498 248.87597656 264.33447266 C248.85760637 253.32373193 248.84345545 242.31299906 248.83496094 231.30224609 C248.83443549 230.62305017 248.83391004 229.94385424 248.83336867 229.24407662 C248.83075852 225.83660286 248.82823112 222.42912905 248.82574487 219.0216552 C248.80502606 190.77263612 248.76966339 162.52364896 248.72509766 134.2746582 C248.02067535 134.26657135 247.31625305 134.2584845 246.59048462 134.25015259 C239.91232431 134.17181699 233.23434916 134.0844131 226.55643654 133.98713112 C223.12425302 133.93744361 219.69209625 133.89111432 216.25976562 133.8527832 C212.30272955 133.80843862 208.34598816 133.74890548 204.38916016 133.6887207 C203.17209381 133.67716949 201.95502747 133.66561829 200.70108032 133.65371704 C184.97383096 133.38442838 171.70514996 129.94551318 159.72509766 119.2746582 C151.05304788 109.67346024 145.70780498 98.08146331 145.51977539 85.10742188 C145.49983017 83.88653366 145.47988495 82.66564545 145.45933533 81.40776062 C145.43426659 79.44501945 145.43426659 79.44501945 145.40869141 77.44262695 C145.38810186 76.08213193 145.36710488 74.72164301 145.34571838 73.36116028 C145.29070419 69.79217498 145.24120448 66.22313393 145.19287109 62.65405273 C145.14250459 59.00735554 145.08689785 55.36073861 145.03173828 51.71411133 C144.92440962 44.56769669 144.82290922 37.42120995 144.72509766 30.2746582 C124.00189841 30.18115861 103.27873401 30.1106514 82.55536652 30.06740952 C72.93283532 30.04679662 63.31043528 30.01870036 53.68798828 29.97290039 C45.29968409 29.93299365 36.91147492 29.90721613 28.52307844 29.89830422 C24.08269455 29.89309597 19.64258244 29.88088128 15.20228577 29.85173798 C11.01948636 29.82450817 6.83706969 29.81622841 2.65419006 29.82222748 C1.12237465 29.82113061 -0.40945409 29.81322168 -1.94119263 29.7978363 C-11.00986261 29.71124541 -18.11711618 29.82382729 -25.29833984 36.02075195 Z M174.72509766 52.2746582 C174.62561189 57.25506885 174.55334079 62.23489072 174.50537109 67.21606445 C174.48535706 68.90757331 174.45813692 70.59901387 174.42333984 72.2902832 C174.374367 74.73316374 174.35202732 77.17512332 174.33447266 79.6184082 C174.31382751 80.36457397 174.29318237 81.11073975 174.27191162 81.8795166 C174.26921715 88.30206378 176.27957379 93.38246331 180.43603516 98.2980957 C180.98517578 98.74411133 181.53431641 99.19012695 182.10009766 99.6496582 C182.64408203 100.11114258 183.18806641 100.57262695 183.74853516 101.0480957 C188.89536861 104.24198049 194.05889708 104.5529935 199.96728516 104.4699707 C201.11984299 104.46572586 201.11984299 104.46572586 202.29568481 104.46139526 C204.73065286 104.45027131 207.16524227 104.42518181 209.60009766 104.3996582 C211.25894648 104.38961831 212.91780112 104.38049423 214.57666016 104.37231445 C218.62628345 104.35035757 222.67562653 104.31588226 226.72509766 104.2746582 C221.60312324 98.08114993 216.01688378 92.42003829 210.33056641 86.74731445 C209.33248047 85.74855375 208.33454293 84.74964474 207.33674622 83.75059509 C205.25988869 81.67227283 203.18125694 79.59574648 201.10131836 77.52050781 C198.43012762 74.85505849 195.76351172 72.18508413 193.09817028 69.51378727 C191.04544465 67.45746082 188.9903592 65.40350616 186.93453407 63.35027885 C185.9493595 62.36577258 184.96493058 61.38051958 183.98125267 60.3945179 C182.61466957 59.02541139 181.24456081 57.65982674 179.87426758 56.29443359 C179.09516525 55.51612686 178.31606293 54.73782013 177.51335144 53.93592834 C176.00979655 52.16122223 176.00979655 52.16122223 174.72509766 52.2746582 Z M-93.83740234 104.66137695 C-98.28444194 109.65221216 -99.39784408 115.19446006 -99.40633011 121.64835739 C-99.41017125 122.74517421 -99.4140124 123.84199102 -99.41796994 124.97204471 C-99.41710346 126.17669415 -99.41623698 127.38134359 -99.41534424 128.62249756 C-99.41831536 129.90250617 -99.42128648 131.18251479 -99.42434764 132.50131154 C-99.43241584 136.05692743 -99.43420711 139.61252313 -99.43494511 143.16814709 C-99.43679597 147.00194528 -99.44434348 150.83573301 -99.45108032 154.66952515 C-99.46466285 163.05385412 -99.47068823 171.4381783 -99.47509098 179.82251644 C-99.47785351 185.05761504 -99.48209089 190.29271179 -99.48659515 195.52780914 C-99.49878767 210.02194986 -99.50908705 224.5160891 -99.51247025 239.01023483 C-99.51268981 239.93791179 -99.51290938 240.86558874 -99.5131356 241.82137711 C-99.51335387 242.75127471 -99.51357215 243.6811723 -99.51379704 244.63924861 C-99.51424051 246.52357785 -99.51468707 248.40790709 -99.51513672 250.29223633 C-99.51535815 251.22692888 -99.51557958 252.16162143 -99.51580772 253.12463799 C-99.51975575 268.27007289 -99.53721001 283.41545967 -99.56049624 298.56087598 C-99.58421025 314.1100138 -99.59667212 329.65912747 -99.59783816 345.20828366 C-99.59875489 353.93873543 -99.60450665 362.66912452 -99.62265778 371.39955902 C-99.63805942 378.83373387 -99.64317885 386.26782665 -99.63491967 393.70201442 C-99.6310134 397.49439416 -99.63194156 401.28660865 -99.64597702 405.07896805 C-99.66106139 409.19239278 -99.65284881 413.30544526 -99.64239502 417.41888428 C-99.65045142 418.61461083 -99.65850783 419.81033739 -99.66680837 421.04229808 C-99.62098284 428.74205678 -98.62460581 434.23316824 -94.71240234 440.9621582 C-88.06680374 447.26695688 -80.65851512 449.0166645 -71.74911499 448.90284729 C-70.73757784 448.90994168 -69.72604068 448.91703606 -68.68385088 448.92434543 C-65.3197631 448.94184204 -61.95684346 448.92386246 -58.59277344 448.90576172 C-56.17080665 448.91090362 -53.7488436 448.91818693 -51.32688904 448.92744446 C-45.44729332 448.94401298 -39.56800194 448.93734944 -33.68843602 448.91935623 C-28.9084943 448.90529621 -24.12864282 448.90144471 -19.3486824 448.90479851 C-18.66683286 448.90527595 -17.98498332 448.90575339 -17.28247166 448.9062453 C-15.89707383 448.90727169 -14.51167602 448.90832705 -13.12627824 448.90941107 C-0.89417754 448.91796575 11.3377626 448.90134186 23.56982422 448.87158203 C35.42698913 448.84273489 47.28392289 448.83566864 59.14111328 448.85107422 C72.07009546 448.86784945 84.99896806 448.87185813 97.92795312 448.85436386 C99.30747182 448.85251956 100.68699053 448.85068484 102.06650925 448.84885979 C102.74516891 448.8479477 103.42382857 448.84703561 104.12305368 448.84609588 C108.89589361 448.84049966 113.66867987 448.84378898 118.44151688 448.85040474 C124.86845202 448.85896013 131.29512947 448.84593385 137.72201347 448.81855583 C140.07943548 448.8116738 142.43688856 448.81157204 144.79430962 448.81877136 C148.01433594 448.82747141 151.23333689 448.81149942 154.45327759 448.7893219 C155.84968804 448.80168305 155.84968804 448.80168305 157.2743088 448.81429392 C164.17190292 448.72672099 169.51155711 447.10356648 174.74853516 442.4934082 C175.19455078 441.9262207 175.64056641 441.3590332 176.10009766 440.7746582 C176.79232422 439.92387695 176.79232422 439.92387695 177.49853516 439.0559082 C180.13408796 435.22848119 180.97245744 432.53703885 180.92041016 427.8527832 C180.91396484 426.82797852 180.90751953 425.80317383 180.90087891 424.74731445 C180.88412109 423.68383789 180.86736328 422.62036133 180.85009766 421.5246582 C180.84107422 420.44571289 180.83205078 419.36676758 180.82275391 418.25512695 C180.79921071 415.59474543 180.76632564 412.93481484 180.72509766 410.2746582 C179.18783964 410.27245836 179.18783964 410.27245836 177.61952591 410.27021408 C152.65473791 410.23357927 127.69008365 410.17407744 102.72540665 410.09075546 C90.65254755 410.05098765 78.57975342 410.01858364 66.50683594 410.00366211 C55.98107726 409.99063395 45.45546167 409.96363938 34.92978358 409.92004514 C29.35922651 409.89745672 23.78884576 409.88174596 18.21823883 409.88277435 C12.96835581 409.8835225 7.71886219 409.86550936 2.46907997 409.83349037 C0.54874512 409.82501501 -1.37163353 409.82322527 -3.29197884 409.82885551 C-19.88005925 409.87098858 -33.96421981 407.32408725 -46.52490234 395.5246582 C-54.99793836 386.53810485 -60.37313211 374.8910661 -60.41356754 362.442729 C-60.41904199 361.49225695 -60.42451643 360.5417849 -60.43015677 359.56251067 C-60.43113487 358.52651884 -60.43211298 357.490527 -60.43312073 356.42314148 C-60.44052769 354.76289459 -60.44052769 354.76289459 -60.44808429 353.06910735 C-60.46346533 349.35336476 -60.47182161 345.63763945 -60.48022461 341.921875 C-60.48980265 339.26107024 -60.49976945 336.60026958 -60.51022339 333.93946838 C-60.53196796 328.20735582 -60.55011982 322.47524091 -60.56582832 316.74310875 C-60.58854535 308.45541883 -60.61668564 300.16775429 -60.6461476 291.88008592 C-60.69380104 278.43374037 -60.73707131 264.98738443 -60.77758789 251.54101562 C-60.81695426 238.47948397 -60.85838322 225.41796153 -60.90258789 212.35644531 C-60.90531216 211.55127012 -60.90803643 210.74609494 -60.91084326 209.9165205 C-60.92452293 205.87717432 -60.93824316 201.83782827 -60.95198357 197.7984823 C-61.06591303 164.29055999 -61.17273019 130.78261842 -61.27490234 97.2746582 C-64.16690963 97.24419821 -67.05859309 97.22192341 -69.95068359 97.2043457 C-71.17325867 97.1902063 -71.17325867 97.1902063 -72.42053223 97.17578125 C-81.11014599 97.13617298 -87.36008221 98.61887692 -93.83740234 104.66137695 Z" transform="translate(181.27490234375,16.725341796875)"/><path fill="#000" d="M0 0 C0.65270154 -0.00297112 1.30540308 -0.00594224 1.97788346 -0.0090034 C4.15715395 -0.01765021 6.33636925 -0.01919521 8.51565552 -0.02069092 C10.08137122 -0.02532186 11.6470858 -0.03034689 13.21279907 -0.03573608 C17.46077099 -0.04883354 21.70872712 -0.05529959 25.95671606 -0.05974674 C28.61199626 -0.06268111 31.26727217 -0.06678656 33.9225502 -0.07125092 C42.23432866 -0.08491743 50.54609728 -0.09458883 58.8578862 -0.09845281 C68.44563403 -0.10293482 78.03323939 -0.1204929 87.6209439 -0.1494534 C95.03765621 -0.17107725 102.45432844 -0.18115743 109.87107193 -0.18249393 C114.29843067 -0.18354124 118.72565532 -0.1894336 123.1529808 -0.20731354 C127.31775667 -0.22380692 131.48229781 -0.22594363 135.64709473 -0.21717453 C137.17286941 -0.21640489 138.69865678 -0.22073721 140.22439957 -0.23063278 C142.31296322 -0.24338106 144.40069902 -0.23746088 146.48925781 -0.22705078 C148.23968038 -0.22925062 148.23968038 -0.22925062 150.02546501 -0.2314949 C155.40752102 0.36674073 159.26302046 2.12824912 163.24661255 5.76544189 C165.89894123 9.97796392 166.78275519 13.18155826 166.37161255 18.14044189 C165.14351986 22.69160893 163.45895919 25.2729504 159.76237488 28.22210693 C153.66184557 31.58773536 146.29588992 30.69609346 139.52566528 30.65802002 C137.90876639 30.66344472 136.29187243 30.67056934 134.67498779 30.67926025 C130.29691598 30.69745382 125.91922233 30.69044297 121.54114413 30.67774391 C116.95419234 30.66759737 112.36727232 30.67701402 107.78031921 30.68328857 C100.07932741 30.69055943 92.37848922 30.68099127 84.67752075 30.66192627 C75.77906571 30.64015085 66.8809772 30.64721596 57.98253101 30.66923189 C50.33561839 30.68739269 42.688816 30.68994113 35.04188877 30.67947721 C30.47765251 30.67324701 25.91358847 30.67239377 21.34936333 30.68562317 C17.0588823 30.69719126 12.76887327 30.68913867 8.47844315 30.66604614 C6.90549693 30.66076447 5.33251089 30.6622636 3.75958061 30.6710968 C1.60921176 30.68205803 -0.5396527 30.6682847 -2.68992615 30.64837646 C-4.49314252 30.64611431 -4.49314252 30.64611431 -6.33278751 30.64380646 C-11.49177616 29.85583094 -14.56407458 27.3167877 -18.00338745 23.51544189 C-20.20373759 18.94548392 -20.43928278 15.12744817 -19.62838745 10.14044189 C-17.62611887 6.20741433 -15.47418952 3.35469157 -11.62838745 1.14044189 C-7.71835071 0.14212905 -4.02594014 0.01026914 0 0 Z" transform="translate(216.62838745117188,258.85955810546875)"/><path fill="#000" d="M0 0 C1.69071625 -0.01268921 1.69071625 -0.01268921 3.41558838 -0.02563477 C5.25633942 -0.01652573 5.25633942 -0.01652573 7.13427734 -0.00723267 C8.43395447 -0.01248962 9.73363159 -0.01774658 11.07269287 -0.02316284 C14.63055594 -0.03681982 18.18815754 -0.03154463 21.74602509 -0.02202559 C25.47261754 -0.01442055 29.19918789 -0.02147694 32.92578125 -0.02618408 C39.1834718 -0.03163918 45.44105606 -0.02445651 51.69873047 -0.01016235 C58.92936788 0.00616376 66.1597515 0.00087507 73.39038277 -0.01564157 C79.6028466 -0.02926347 85.81523411 -0.03117267 92.02770805 -0.02332556 C95.73622674 -0.0186529 99.44462622 -0.01801294 103.15313721 -0.02793503 C107.28762804 -0.0382245 111.42168259 -0.02395585 115.55615234 -0.00723267 C116.7833197 -0.01330536 118.01048706 -0.01937805 119.27484131 -0.02563477 C120.40198547 -0.01717529 121.52912964 -0.00871582 122.69042969 0 C124.15601822 0.00169662 124.15601822 0.00169662 125.6512146 0.00342751 C130.08146498 0.62426015 132.65005649 2.60855275 135.59521484 5.88095093 C138.51471813 10.0516699 138.68434324 13.3788071 138.34521484 18.38095093 C136.35677367 23.71834566 133.43853837 26.83428917 128.34521484 29.38095093 C126.59540197 29.48053956 124.84179347 29.51603162 123.0891571 29.52139282 C121.97455109 29.52710297 120.85994507 29.53281311 119.71156311 29.53869629 C118.48296066 29.53981415 117.25435822 29.54093201 115.98852539 29.54208374 C114.69903992 29.54704865 113.40955444 29.55201355 112.08099365 29.55712891 C108.53750147 29.57026153 104.99402823 29.57669967 101.45051551 29.58113956 C99.23698976 29.58406924 97.0234692 29.58817387 94.80994606 29.59264374 C87.88532716 29.60632168 80.96072012 29.61598657 74.03608865 29.61984563 C66.0409626 29.62432561 58.04600758 29.64186938 50.05093354 29.67084622 C43.87251869 29.69246189 37.69415195 29.70254986 31.51569968 29.70388675 C27.82499707 29.70493498 24.13445516 29.71084621 20.44379234 29.72870636 C16.32578531 29.74824628 12.20813613 29.74389856 8.09008789 29.73739624 C6.25629326 29.75121841 6.25629326 29.75121841 4.38545227 29.76531982 C2.70085403 29.75696609 2.70085403 29.75696609 0.98222351 29.7484436 C0.00864238 29.74991016 -0.96493876 29.75137672 -1.96802235 29.75288773 C-6.97797152 29.05934513 -10.39749656 26.10356646 -13.65478516 22.38095093 C-15.19275224 17.76704969 -15.57707919 12.99745901 -13.93603516 8.34188843 C-10.72292056 2.25251802 -6.74254788 0.0078054 0 0 Z" transform="translate(211.65478515625,327.6190490722656)"/><path fill="#000" d="M0 0 C0.99087616 -0.0098568 0.99087616 -0.0098568 2.00177002 -0.01991272 C4.18713503 -0.0396151 6.3724313 -0.05130344 8.55786133 -0.0612793 C9.30637171 -0.06535482 10.05488209 -0.06943035 10.8260746 -0.07362938 C14.79045967 -0.09448037 18.75481026 -0.10878441 22.71923828 -0.11816406 C26.80018263 -0.12920678 30.88057846 -0.16358409 34.96132946 -0.20333576 C38.11077335 -0.22957317 41.26008817 -0.23786232 44.40963173 -0.24144554 C45.91303511 -0.24629573 47.41643333 -0.25786479 48.91972923 -0.27648354 C56.96472245 -0.36990353 63.56793864 -0.4287947 70.45239258 4.17700195 C73.2071174 7.14803311 74.36792281 10.4876066 74.56958008 14.52075195 C74.22702849 18.9888162 73.4833092 22.75499931 70.45239258 26.17700195 C63.00615473 31.16719632 55.43204028 30.7451129 46.78833008 30.6730957 C45.26714 30.67325092 43.74594954 30.67474358 42.22476196 30.67750549 C39.04915717 30.67888436 35.87400686 30.66641543 32.69848633 30.64355469 C28.63880312 30.61512254 24.57987132 30.6179272 20.52013206 30.6306448 C17.38359208 30.63761492 14.24722431 30.62979838 11.11070633 30.61738777 C9.61406745 30.61288962 8.11740998 30.6125221 6.6207695 30.61645317 C4.52698883 30.61937992 2.4342276 30.60279262 0.34057617 30.58105469 C-0.84774811 30.5756517 -2.03607239 30.57024872 -3.26040649 30.56468201 C-8.25871773 29.97520007 -11.49875943 28.33923892 -14.86010742 24.61450195 C-18.12434893 19.89948644 -18.18019073 15.81825857 -17.54760742 10.17700195 C-13.49052428 2.20773149 -8.6404695 0.07117955 0 0 Z" transform="translate(214.547607421875,190.822998046875)"/></svg>